<svg width="47" height="47" viewBox="0 0 47 47" fill="none" xmlns="http://www.w3.org/2000/svg">
<path d="M47 23.5C47 29.7326 44.5241 35.7099 40.117 40.117C35.7099 44.5241 29.7326 47 23.5 47C17.2674 47 11.2901 44.5241 6.88299 40.117C2.47589 35.7099 0 29.7326 0 23.5C0 17.2674 2.47589 11.2901 6.88299 6.88299C11.2901 2.47589 17.2674 0 23.5 0C29.7326 0 35.7099 2.47589 40.117 6.88299C44.5241 11.2901 47 17.2674 47 23.5ZM24.9688 13.2188C24.9688 12.8292 24.814 12.4556 24.5386 12.1802C24.2631 11.9047 23.8895 11.75 23.5 11.75C23.1105 11.75 22.7369 11.9047 22.4614 12.1802C22.186 12.4556 22.0312 12.8292 22.0312 13.2188V22.0312H13.2188C12.8292 22.0312 12.4556 22.186 12.1802 22.4614C11.9047 22.7369 11.75 23.1105 11.75 23.5C11.75 23.8895 11.9047 24.2631 12.1802 24.5386C12.4556 24.814 12.8292 24.9688 13.2188 24.9688H22.0312V33.7812C22.0312 34.1708 22.186 34.5444 22.4614 34.8198C22.7369 35.0953 23.1105 35.25 23.5 35.25C23.8895 35.25 24.2631 35.0953 24.5386 34.8198C24.814 34.5444 24.9688 34.1708 24.9688 33.7812V24.9688H33.7812C34.1708 24.9688 34.5444 24.814 34.8198 24.5386C35.0953 24.2631 35.25 23.8895 35.25 23.5C35.25 23.1105 35.0953 22.7369 34.8198 22.4614C34.5444 22.186 34.1708 22.0312 33.7812 22.0312H24.9688V13.2188Z" fill="#F1F1F1"/>
</svg>
