<svg width="22" height="22" viewBox="0 0 22 22" fill="none" xmlns="http://www.w3.org/2000/svg">
<path fill-rule="evenodd" clip-rule="evenodd" d="M21.7312 0.269271C21.8165 0.354411 21.8842 0.455553 21.9304 0.566905C21.9766 0.678257 22.0004 0.797631 22.0004 0.918189C22.0004 1.03875 21.9766 1.15812 21.9304 1.26947C21.8842 1.38082 21.8165 1.48197 21.7312 1.56711L1.56705 21.7312C1.39495 21.9033 1.16153 22 0.918135 22C0.674744 22 0.441321 21.9033 0.269217 21.7312C0.0971138 21.5591 0.000427246 21.3257 0.000427246 21.0823C0.000427246 20.8389 0.0971138 20.6055 0.269217 20.4334L20.4333 0.269271C20.5185 0.183916 20.6196 0.116196 20.731 0.0699902C20.8423 0.0237842 20.9617 0 21.0822 0C21.2028 0 21.3222 0.0237842 21.4335 0.0699902C21.5449 0.116196 21.646 0.183916 21.7312 0.269271Z" />
<path fill-rule="evenodd" clip-rule="evenodd" d="M0.269271 0.269271C0.183916 0.354411 0.116196 0.455553 0.0699902 0.566905C0.0237842 0.678257 0 0.797631 0 0.918189C0 1.03875 0.0237842 1.15812 0.0699902 1.26947C0.116196 1.38082 0.183916 1.48197 0.269271 1.56711L20.4334 21.7312C20.6055 21.9033 20.8389 22 21.0823 22C21.3257 22 21.5591 21.9033 21.7312 21.7312C21.9033 21.5591 22 21.3257 22 21.0823C22 20.8389 21.9033 20.6055 21.7312 20.4334L1.56711 0.269271C1.48197 0.183916 1.38082 0.116196 1.26947 0.0699902C1.15812 0.0237842 1.03875 0 0.918189 0C0.797631 0 0.678257 0.0237842 0.566905 0.0699902C0.455553 0.116196 0.354411 0.183916 0.269271 0.269271Z" />
</svg>
