<svg width="92" height="92" viewBox="0 0 92 92" fill="none" xmlns="http://www.w3.org/2000/svg">
<g clip-path="url(#clip0_247_5576)">
<path fill-rule="evenodd" clip-rule="evenodd" d="M25.6091 7.66344C31.3166 2.74179 38.5961 0.0236328 46.1325 0C61.4937 0 74.2451 11.4209 75.6328 26.1482C84.7238 27.433 91.8162 35.0451 91.8162 44.3874C91.8162 54.6434 83.2619 62.8151 72.8975 62.8151H57.5534C56.7962 62.8151 56.07 62.5142 55.5345 61.9788C54.999 61.4433 54.6982 60.7171 54.6982 59.9598C54.6982 59.2026 54.999 58.4763 55.5345 57.9409C56.07 57.4054 56.7962 57.1046 57.5534 57.1046H72.9032C80.2754 57.1046 86.1057 51.3256 86.1057 44.3874C86.1057 37.4435 80.2811 31.6645 72.8975 31.6645H70.0422V28.8093C70.0479 16.132 59.4265 5.71046 46.1325 5.71046C39.9645 5.7351 34.0083 7.96286 29.3381 11.992C25.0152 15.7152 22.7539 20.2036 22.7539 23.727V26.2852L20.2128 26.5651C12.2352 27.4388 6.15931 33.9887 6.15931 41.7891C6.15931 50.1664 13.1832 57.1046 22.0401 57.1046H34.7116C35.4689 57.1046 36.1951 57.4054 36.7306 57.9409C37.266 58.4763 37.5668 59.2026 37.5668 59.9598C37.5668 60.7171 37.266 61.4433 36.7306 61.9788C36.1951 62.5142 35.4689 62.8151 34.7116 62.8151H22.0401C10.2023 62.8151 0.448853 53.4842 0.448853 41.7891C0.448853 31.7216 7.67829 23.3843 17.249 21.2715C18.0656 16.3433 21.2349 11.4323 25.6091 7.66344Z" fill="#869497"/>
<path fill-rule="evenodd" clip-rule="evenodd" d="M44.111 23.6756C44.3763 23.4097 44.6914 23.1988 45.0382 23.0548C45.3851 22.9109 45.757 22.8368 46.1326 22.8368C46.5081 22.8368 46.88 22.9109 47.2269 23.0548C47.5737 23.1988 47.8888 23.4097 48.1541 23.6756L65.2854 40.807C65.8216 41.3431 66.1228 42.0703 66.1228 42.8285C66.1228 43.5867 65.8216 44.3139 65.2854 44.85C64.7493 45.3861 64.0221 45.6873 63.2639 45.6873C62.5057 45.6873 61.7786 45.3861 61.2424 44.85L48.9878 32.5896V82.8017C48.9878 83.559 48.687 84.2852 48.1515 84.8207C47.616 85.3561 46.8898 85.6569 46.1326 85.6569C45.3753 85.6569 44.6491 85.3561 44.1136 84.8207C43.5781 84.2852 43.2773 83.559 43.2773 82.8017V32.5896L31.0227 44.85C30.4865 45.3861 29.7594 45.6873 29.0012 45.6873C28.243 45.6873 27.5158 45.3861 26.9797 44.85C26.4435 44.3139 26.1423 43.5867 26.1423 42.8285C26.1423 42.0703 26.4435 41.3431 26.9797 40.807L44.111 23.6756Z" fill="#869497"/>
</g>
<defs>
<clipPath id="clip0_247_5576">
<rect width="91.3673" height="91.3673" fill="white" transform="translate(0.448853)"/>
</clipPath>
</defs>
</svg>
